<?xml version="1.0" standalone="no"?><!DOCTYPE svg PUBLIC "-//W3C//DTD SVG 1.1//EN" "http://www.w3.org/Graphics/SVG/1.1/DTD/svg11.dtd"><svg t="1565785411705" class="icon" viewBox="0 0 1024 1024" version="1.1" xmlns="http://www.w3.org/2000/svg" p-id="26369" xmlns:xlink="http://www.w3.org/1999/xlink" width="200" height="200"><defs><style type="text/css"></style></defs><path d="M481.28 512m-440.32 0a440.32 440.32 0 1 0 880.64 0 440.32 440.32 0 1 0-880.64 0Z" fill="#F4F4F4" p-id="26370"></path><path d="M102.4 491.52h737.28v399.36H102.4z" fill="#AEDCDC" p-id="26371"></path><path d="M81.92 901.12V460.8l153.6-102.4h471.04l153.6 102.4v440.32H81.92z m624.64-501.76H235.52l-92.16 61.44h655.36l-92.16-61.44z m112.64 102.4H122.88v358.4h696.32V501.76zM286.72 798.72h-40.96V563.2h40.96v235.52z m204.8 0h-40.96V563.2h40.96v235.52z m204.8 0h-40.96V563.2h40.96v235.52zM876.72832 395.47904a210.35008 210.35008 0 0 0-15.81056-37.8368l108.77952-49.87904 17.50016 37.04832-110.46912 50.66752z m-80.0768-110.22336l74.84416-88.82176 31.81568 26.51136-75.28448 89.344a208.87552 208.87552 0 0 0-31.37536-27.0336z m-66.10944-31.06816c-5.00736-1.34144-10.02496-2.26304-15.03232-3.2256l29.34784-109.55776 39.56736 10.60864-29.5936 110.45888a210.432 210.432 0 0 0-24.28928-8.28416z m-108.22656 0.04096l-19.36384-110.19264 40.3456-7.09632 19.44576 110.66368a208.49664 208.49664 0 0 0-40.42752 6.62528z m-83.3024 43.85792l-64.09216-91.392 33.536-23.51104 64.0512 91.33056a210.65728 210.65728 0 0 0-33.49504 23.57248z" fill="#2C7978" p-id="26372"></path></svg>