<?xml version="1.0" standalone="no"?><!DOCTYPE svg PUBLIC "-//W3C//DTD SVG 1.1//EN" "http://www.w3.org/Graphics/SVG/1.1/DTD/svg11.dtd"><svg t="1565785226872" class="icon" viewBox="0 0 1350 1024" version="1.1" xmlns="http://www.w3.org/2000/svg" p-id="22091" xmlns:xlink="http://www.w3.org/1999/xlink" width="263.671875" height="200"><defs><style type="text/css"></style></defs><path d="M1132.93617 544.680851h108.93617v43.574468h-108.93617zM108.93617 806.12766h108.93617v43.574468H108.93617zM1132.93617 806.12766h108.93617v43.574468h-108.93617zM0 675.404255h217.87234v43.574468H0zM1132.93617 675.404255h217.872341v43.574468H1132.93617z" fill="#d81e06" p-id="22092"></path><path d="M250.553191 627.47234c41.395745 10.893617 95.86383 19.608511 159.046809 21.787234L331.165957 936.851064c-2.178723 8.714894 2.178723 19.608511 13.072341 21.787234h4.357447c8.714894 0 15.251064-4.357447 17.429787-13.072341l80.612766-296.306383h8.714893c65.361702 0 135.080851-4.357447 206.978724-15.251063 128.544681-17.429787 246.195745-45.753191 333.344681-82.79149 95.86383-39.217021 141.617021-84.970213 135.080851-128.544681-4.357447-32.680851-37.038298-58.825532-98.042553-74.076595-52.289362-15.251064-122.008511-21.787234-204.8-21.787234-65.361702 0-135.080851 4.357447-206.978724 15.251063-128.544681 17.429787-246.195745 45.753191-333.344681 82.79149-95.86383 39.217021-141.617021 84.970213-135.080851 128.544681 4.357447 32.680851 37.038298 56.646809 98.042553 74.076595z m52.289362-172.119149c84.970213-34.859574 198.26383-65.361702 322.451064-80.612765 69.719149-8.714894 139.438298-13.07234 202.621277-13.072341 78.434043 0 145.974468 6.53617 196.085106 21.787234 43.574468 13.07234 69.719149 28.323404 71.897872 45.753192 2.178723 19.608511-26.144681 54.468085-115.47234 91.506383-84.970213 34.859574-198.26383 65.361702-322.451064 80.612766-69.719149 8.714894-137.259574 13.07234-202.621277 13.07234l6.536171-21.787234c2.178723-8.714894-2.178723-19.608511-13.072341-21.787234-8.714894-2.178723-19.608511 2.178723-21.787234 13.07234l-8.714893 30.502128c-63.182979-2.178723-117.651064-8.714894-159.046809-19.608511-43.574468-13.07234-69.719149-28.323404-71.897872-45.753191-2.178723-19.608511 26.144681-54.468085 115.47234-93.685107z" fill="#d81e06" p-id="22093"></path><path d="M318.093617 392.170213c-8.714894-2.178723-15.251064-13.07234-13.07234-21.787234 13.07234-61.004255 43.574468-115.47234 87.148936-156.868085 43.574468-43.574468 100.221277-69.719149 161.225532-78.434043 117.651064-17.429787 233.123404 39.217021 294.127659 145.974468 4.357447 8.714894 2.178723 19.608511-6.53617 26.144681-8.714894 4.357447-19.608511 2.178723-23.965957-6.53617-54.468085-93.685106-154.689362-143.795745-259.268086-130.723404-106.757447 15.251064-193.906383 98.042553-217.87234 206.978723-2.178723 8.714894-8.714894 15.251064-17.429787 15.251064h-4.357447z m368.204255 631.829787C474.961702 1024 305.021277 1000.034043 305.021277 969.531915S474.961702 915.06383 686.297872 915.06383 1067.574468 939.029787 1067.574468 969.531915 897.634043 1024 686.297872 1024zM444.459574 542.502128c2.178723 2.178723 6.53617 2.178723 8.714894 2.178723 6.53617 0 10.893617-2.178723 15.251064-6.53617 19.608511-28.323404 87.148936-56.646809 159.046808-65.361702 82.791489-10.893617 145.974468 4.357447 169.940426 21.787234 8.714894 6.53617 19.608511 4.357447 23.965957-2.178724 6.53617-6.53617 4.357447-17.429787-2.178723-21.787234-39.217021-28.323404-115.47234-39.217021-198.26383-28.323404-84.970213 10.893617-159.046809 41.395745-185.191489 80.612766-2.178723 4.357447 0 15.251064 8.714893 19.608511z" fill="#d81e06" p-id="22094"></path><path d="M860.595745 618.757447c-4.357447-8.714894-15.251064-10.893617-23.965958-6.53617-8.714894 4.357447-10.893617 15.251064-4.357447 23.965957l204.8 335.523404c4.357447 4.357447 8.714894 8.714894 15.251064 8.714894 2.178723 0 6.53617 0 8.714894-2.178723 8.714894-4.357447 10.893617-15.251064 4.357447-23.965958l-204.8-335.523404zM649.259574 697.191489c-10.893617 2.178723-19.608511 8.714894-17.429787 19.608511l23.965958 161.225532c2.178723 8.714894 10.893617 15.251064 19.60851 15.251064h2.178724c10.893617-2.178723 19.608511-8.714894 17.429787-19.608511l-23.965957-161.225532c0-8.714894-10.893617-15.251064-21.787235-15.251064zM1002.212766 185.191489c-30.502128 0-54.468085-23.965957-54.468085-54.468085s23.965957-54.468085 54.468085-54.468085 54.468085 23.965957 54.468085 54.468085-23.965957 54.468085-54.468085 54.468085z m0-21.787234c17.429787 0 32.680851-15.251064 32.680851-32.680851s-15.251064-32.680851-32.680851-32.680851-32.680851 15.251064-32.680851 32.680851 15.251064 32.680851 32.680851 32.680851zM239.659574 294.12766c-17.429787 0-32.680851-15.251064-32.680851-32.680851s15.251064-32.680851 32.680851-32.680852 32.680851 15.251064 32.680852 32.680852-15.251064 32.680851-32.680852 32.680851z m0-21.787234c6.53617 0 10.893617-4.357447 10.893617-10.893617s-4.357447-10.893617-10.893617-10.893618-10.893617 4.357447-10.893617 10.893618 4.357447 10.893617 10.893617 10.893617z" fill="#d81e06" p-id="22095"></path><path d="M566.468085 54.468085h89.32766v-17.429787H566.468085z" fill="#d81e06" p-id="22096"></path><path d="M603.506383 89.32766h17.429787V0h-17.429787z" fill="#d81e06" p-id="22097"></path></svg>